<svg preserveAspectRatio="none" overflow="visible" style="display: block;" width="96.1557" height="93.7538" viewBox="0 0 96.1557 93.7538" fill="none" xmlns="http://www.w3.org/2000/svg">
<g id="surface1">
<path id="Vector" d="M96.1487 46.877C96.1487 20.9873 75.3202 0.000177224 49.6263 0.000177224C23.9324 0.000177224 3.10317 20.9873 3.10317 46.877C3.10317 72.7667 23.9324 93.7538 49.6263 93.7538C75.3202 93.7538 96.1487 72.7667 96.1487 46.877Z" fill="url(#paint0_linear_0_87)"/>
<path id="Vector_2" d="M96.1487 46.877C96.1487 20.9873 75.3202 0.000177224 49.6263 0.000177224C23.9324 0.000177224 3.10317 20.9873 3.10317 46.877C3.10317 72.7667 23.9324 93.7538 49.6263 93.7538C75.3202 93.7538 96.1487 72.7667 96.1487 46.877Z" fill="url(#paint1_radial_0_87)"/>
<path id="Vector_3" d="M96.1487 46.877C96.1487 20.9873 75.3202 0.000177224 49.6263 0.000177224C23.9324 0.000177224 3.10317 20.9873 3.10317 46.877C3.10317 72.7667 23.9324 93.7538 49.6263 93.7538C75.3202 93.7538 96.1487 72.7667 96.1487 46.877Z" fill="url(#paint2_radial_0_87)"/>
<path id="Vector_4" d="M49.6339 0.000177224C75.3271 0.000828249 96.1557 20.988 96.1557 46.877C96.1557 55.4893 93.8462 63.556 89.8242 70.4912L90.5802 68.8043C95.1845 58.5044 87.7007 46.849 76.4884 46.8575L57.9719 46.8718C53.369 46.8757 49.6339 43.1158 49.6339 38.4782V19.7887C49.6333 8.48749 38.0519 0.955944 27.8315 5.61042L26.3433 6.28948C33.1931 2.29063 41.1479 0.000177224 49.6339 0.000177224Z" fill="url(#paint3_linear_0_87)"/>
<path id="Vector_5" d="M49.6339 0.000177224C75.3271 0.000828249 96.1557 20.988 96.1557 46.877C96.1557 55.4893 93.8462 63.556 89.8242 70.4912L90.5802 68.8043C95.1845 58.5044 87.7007 46.849 76.4884 46.8575L57.9719 46.8718C53.369 46.8757 49.6339 43.1158 49.6339 38.4782V19.7887C49.6333 8.48749 38.0519 0.955944 27.8315 5.61042L26.3433 6.28948C33.1931 2.29063 41.1479 0.000177224 49.6339 0.000177224Z" fill="url(#paint4_radial_0_87)"/>
<path id="Vector_6" d="M49.6339 0.000177224C75.3271 0.000828249 96.1557 20.988 96.1557 46.877C96.1557 55.4893 93.8462 63.556 89.8242 70.4912L90.5802 68.8043C95.1845 58.5044 87.7007 46.849 76.4884 46.8575L57.9719 46.8718C53.369 46.8757 49.6339 43.1158 49.6339 38.4782V19.7887C49.6333 8.48749 38.0519 0.955944 27.8315 5.61042L26.3433 6.28948C33.1931 2.29063 41.1479 0.000177224 49.6339 0.000177224Z" fill="url(#paint5_radial_0_87)"/>
<path id="Vector_7" d="M49.6339 0.000177224C75.3271 0.000828249 96.1557 20.988 96.1557 46.877C96.1557 55.4893 93.8462 63.556 89.8242 70.4912L90.5802 68.8043C95.1845 58.5044 87.7007 46.849 76.4884 46.8575L57.9719 46.8718C53.369 46.8757 49.6339 43.1158 49.6339 38.4782V19.7887C49.6333 8.48749 38.0519 0.955944 27.8315 5.61042L26.3433 6.28948C33.1931 2.29063 41.1479 0.000177224 49.6339 0.000177224Z" fill="url(#paint6_radial_0_87)"/>
<path id="Vector_8" d="M49.6339 0.000177224C75.3271 0.000828249 96.1557 20.988 96.1557 46.877C96.1557 55.4893 93.8462 63.556 89.8242 70.4912L90.5802 68.8043C95.1845 58.5044 87.7007 46.849 76.4884 46.8575L57.9719 46.8718C53.369 46.8757 49.6339 43.1158 49.6339 38.4782V19.7887C49.6333 8.48749 38.0519 0.955944 27.8315 5.61042L26.3433 6.28948C33.1931 2.29063 41.1479 0.000177224 49.6339 0.000177224Z" fill="url(#paint7_radial_0_87)"/>
<path id="Vector_9" d="M8.06478 44.3768H31.6385C36.0928 44.3768 39.7031 48.0143 39.7031 52.5021V76.253C39.7031 80.7408 36.0928 84.3783 31.6385 84.3783H8.06478C3.61047 84.3783 0.000103307 80.7408 0.000103307 76.253V52.5021C0.000103307 48.0143 3.61047 44.3768 8.06478 44.3768Z" fill="url(#paint8_radial_0_87)"/>
<path id="Vector_10" d="M8.06478 44.3768H31.6385C36.0928 44.3768 39.7031 48.0143 39.7031 52.5021V76.253C39.7031 80.7408 36.0928 84.3783 31.6385 84.3783H8.06478C3.61047 84.3783 0.000103307 80.7408 0.000103307 76.253V52.5021C0.000103307 48.0143 3.61047 44.3768 8.06478 44.3768Z" fill="url(#paint9_radial_0_87)"/>
<path id="Vector_11" d="M17.9141 68.3625V75.8068H12.8064V52.9485H20.6973C23.5225 52.9485 25.6731 53.5703 27.149 54.8138C28.636 56.0567 29.3791 57.9005 29.3791 60.3446C29.3791 62.8636 28.5461 64.8292 26.8802 66.2426C25.2253 67.6561 23.0004 68.3625 20.2068 68.3625H17.9141ZM17.9141 56.9018V64.4092H20.0491C21.3138 64.4092 22.2895 64.0752 22.9745 63.4053C23.6595 62.736 24.0026 61.7743 24.0026 60.5204C24.0026 59.3621 23.6647 58.4695 22.99 57.8419C22.3257 57.2149 21.3719 56.9018 20.128 56.9018H17.9141Z" fill="white"/>
</g>
<defs>
<linearGradient id="paint0_linear_0_87" x1="44.9055" y1="-2.98429" x2="-12.5071" y2="51.5298" gradientUnits="userSpaceOnUse">
<stop offset="0.0582736" stop-color="#FF7F48"/>
<stop offset="1" stop-color="#E5495B"/>
</linearGradient>
<radialGradient id="paint1_radial_0_87" cx="0" cy="0" r="1" gradientTransform="matrix(-66.054 66.5507 -111.178 -112.014 68.0161 27.203)" gradientUnits="userSpaceOnUse">
<stop offset="0.151523" stop-color="#AA1D2D"/>
<stop offset="0.380855" stop-color="#D12B18" stop-opacity="0.439216"/>
<stop offset="0.601996" stop-color="#FF3C00" stop-opacity="0"/>
</radialGradient>
<radialGradient id="paint2_radial_0_87" cx="0" cy="0" r="1" gradientTransform="matrix(80.0698 -38.1045 68.5166 146.149 -13.1355 84.9815)" gradientUnits="userSpaceOnUse">
<stop offset="0.4067" stop-color="#FF66FB" stop-opacity="0.501961"/>
<stop offset="1" stop-color="#EA3D01" stop-opacity="0"/>
</radialGradient>
<linearGradient id="paint3_linear_0_87" x1="58.4387" y1="57.3082" x2="108.779" y2="20.276" gradientUnits="userSpaceOnUse">
<stop offset="0.310768" stop-color="#FF6E30"/>
<stop offset="0.634576" stop-color="#FFA05C"/>
</linearGradient>
<radialGradient id="paint4_radial_0_87" cx="0" cy="0" r="1" gradientTransform="matrix(58.8693 12.4286 -11.7603 56.5447 41.8158 52.4825)" gradientUnits="userSpaceOnUse">
<stop offset="0.78593" stop-color="#FFA05C" stop-opacity="0"/>
<stop offset="0.904889" stop-color="#FFCE84"/>
</radialGradient>
<radialGradient id="paint5_radial_0_87" cx="0" cy="0" r="1" gradientTransform="matrix(50.8218 -33.504 31.8011 48.9669 51.2517 46.1737)" gradientUnits="userSpaceOnUse">
<stop offset="0.295239" stop-color="#FF99E9" stop-opacity="0.8"/>
<stop offset="0.727968" stop-color="#FF99E9" stop-opacity="0"/>
</radialGradient>
<radialGradient id="paint6_radial_0_87" cx="0" cy="0" r="1" gradientTransform="matrix(42.539 -49.0678 44.4781 39.142 44.4315 53.3302)" gradientUnits="userSpaceOnUse">
<stop stop-color="#FD6EF9"/>
<stop offset="0.637205" stop-color="#FF9944"/>
<stop offset="0.85186" stop-color="#FCC479"/>
</radialGradient>
<radialGradient id="paint7_radial_0_87" cx="0" cy="0" r="1" gradientTransform="matrix(-4.80503 32.8045 -73.5854 -10.9411 40.1994 6.19539)" gradientUnits="userSpaceOnUse">
<stop offset="0.144283" stop-color="#FF8D13"/>
<stop offset="0.537266" stop-color="#FF7F29" stop-opacity="0"/>
</radialGradient>
<radialGradient id="paint8_radial_0_87" cx="0" cy="0" r="1" gradientTransform="matrix(39.703 40.0015 -39.703 40.0015 -0.00473379 44.3768)" gradientUnits="userSpaceOnUse">
<stop stop-color="#F8193E"/>
<stop offset="0.939062" stop-color="#920616"/>
</radialGradient>
<radialGradient id="paint9_radial_0_87" cx="0" cy="0" r="1" gradientUnits="userSpaceOnUse" gradientTransform="translate(19.8467 68.3777) rotate(90) scale(28.0011 31.6384)">
<stop offset="0.575893" stop-color="#FFB055" stop-opacity="0"/>
<stop offset="0.973806" stop-color="#FFF2BE" stop-opacity="0.301961"/>
</radialGradient>
</defs>
</svg>
